<svg xmlns="http://www.w3.org/2000/svg" width="24.763" height="25.576" viewBox="0 0 24.763 25.576">
  <path id="Path_765" data-name="Path 765" d="M17.51,108.2c-2.07-1.114-4.053-1.235-5.584-.339a6.146,6.146,0,0,0-2.9,5.4,12.71,12.71,0,0,0,.1,1.785,14.931,14.931,0,0,1-1.745,2.051,3.8,3.8,0,0,0-.772.343c-.078.046-.157.1-.247.16L2.029,120.3a4.46,4.46,0,0,0-1.353,6.144,4.458,4.458,0,0,0,6.01,1.833l.445-.238L11.3,132.41a1.315,1.315,0,0,0,1.651.249l.014-.009,1.105-.74a.8.8,0,0,0,.275-.317.76.76,0,0,0,.06-.1,4.4,4.4,0,0,0,.44-.936.8.8,0,0,0-.352-.831l-1.083-.7a5.3,5.3,0,0,1-1.252-1.117L10.7,126.131l.419-.224a3.649,3.649,0,0,0,.34-.174,3.734,3.734,0,0,0,.677-.509,13.352,13.352,0,0,1,2.935-.378,11.648,11.648,0,0,0,1.081.658c2.238,1.2,4.111,1.321,6.17.116,1.53-.9,2.4-2.684,2.438-5.035a13.97,13.97,0,0,0-2.055-7.112A13.977,13.977,0,0,0,17.51,108.2Zm-4.173,12.348,2.265-1.67-2.571,1.161,1.271-1.012-1.585.58-.042-.07.885-.708-1.121.3-.046-.084.705-.575-.916.179-.048-.094.637-.51-.821.128-.047-.1.6-.483-.763.12-.042-.1,3.319-1.294a2.6,2.6,0,0,0,.38,1.777,3.059,3.059,0,0,0,.685.818l-2.7,1.694Zm4.074-1.8c-.35.2-1.068-.128-1.538-.932s-.41-1.594-.059-1.8,1.067.128,1.538.932S17.76,118.545,17.411,118.749Zm-5.917-5.128c-.19.283-.383.565-.59.836.293-.687.65-1.349,1.009-2.006.472-.863.983-1.71,1.532-2.528.19-.283.383-.565.59-.836-.293.688-.65,1.349-1.008,2.006C12.554,111.956,12.042,112.8,11.494,113.621Zm-.617-.772a8.966,8.966,0,0,1,.613-1.651,8.746,8.746,0,0,1,.863-1.535,8.9,8.9,0,0,1-.614,1.651,8.8,8.8,0,0,1-.863,1.536Zm5.2,10.55,1.718.094-2.385-.75,3.975-.068-4.524-.631,3.507-.545-3.262-.131,2.693-2.212a.27.27,0,0,0,.04-.04,2,2,0,0,0-.011-2.445,3.253,3.253,0,0,0-.429-.577l2.849-2.426-3.518,1.916a1.686,1.686,0,0,0-.416-.15l3.439-3.082q-.273-.363-.565-.71l-3.333,3.189,2.9-3.675a12.674,12.674,0,0,0-1.805-1.619l-.035-.024L13.868,113.1l2.717-3.818c-.282-.179-.575-.339-.872-.495a11.4,11.4,0,0,1,5.944,5.294c2.494,4.259,2.488,8.915-.012,10.379-1.513.886-3.6.4-5.566-1.065Zm-4.363,8.654-.015-.017-4.066-4.265.125-.066.921.706-.512-.925.164-.088.9.689-.5-.9.173-.093.881.673-.488-.881.124-.066,1.918,2.358A5.323,5.323,0,0,0,12.6,130.3l1.153.739a.248.248,0,0,1,0,.414l-1.1.735a.777.777,0,0,1-.946-.134Zm-1.208-5.626c.445.484.866.991,1.286,1.5a7.879,7.879,0,0,0,.921.971,10.762,10.762,0,0,0,1.041.743c.333.222.752.428.8.872-.137-.364-.468-.512-.781-.7a9.484,9.484,0,0,1-1.065-.707,10.234,10.234,0,0,1-1.687-1.956C10.849,126.908,10.676,126.671,10.509,126.427ZM3.5,123.132a4.625,4.625,0,0,1,.113-2.566,3.621,3.621,0,0,0-.232.42,4.53,4.53,0,0,0-.36,2.442,4.622,4.622,0,0,1,.113-2.566,3.589,3.589,0,0,0-.233.418,4.526,4.526,0,0,0-.36,2.442,4.621,4.621,0,0,1,.113-2.566,3.62,3.62,0,0,0-.234.418,4.545,4.545,0,0,0-.36,2.44,4.617,4.617,0,0,1,.113-2.566,3.614,3.614,0,0,0-.234.418,4.545,4.545,0,0,0-.36,2.44,4.617,4.617,0,0,1,.113-2.566,3.649,3.649,0,0,0-.234.418A4.526,4.526,0,0,0,1.1,124.6a4.621,4.621,0,0,1,.113-2.567,4.067,4.067,0,0,1,.25-.56,3.434,3.434,0,0,1,.843-.695l3.418-2.138a14.34,14.34,0,0,0-.906,1.468,4.544,4.544,0,0,0-.36,2.44,4.617,4.617,0,0,1,.113-2.566,3.621,3.621,0,0,0-.234.418,4.544,4.544,0,0,0-.36,2.439,4.617,4.617,0,0,1,.113-2.566,3.625,3.625,0,0,0-.234.418,4.558,4.558,0,0,0-.353,2.44Zm9.3.406a5.253,5.253,0,0,0,.568.353,5.028,5.028,0,0,1-1.094-.4,6.241,6.241,0,0,1-1.719-1.335,6.446,6.446,0,0,0,1.637,1.612,4.96,4.96,0,0,0,.527.3,4.844,4.844,0,0,1-1.066-.351,5.786,5.786,0,0,1-1.725-1.278A5.954,5.954,0,0,0,11.589,124a4.875,4.875,0,0,0,.486.261,4.514,4.514,0,0,1-.953-.268A5.427,5.427,0,0,1,9.3,122.727a5.51,5.51,0,0,0,1.715,1.528c.139.076.28.145.422.207a4.18,4.18,0,0,1-.956-.237,5.172,5.172,0,0,1-1.809-1.208,5.208,5.208,0,0,0,1.759,1.491c.118.059.237.112.357.16a3.943,3.943,0,0,1-.928-.2A4.9,4.9,0,0,1,8.042,123.3a4.922,4.922,0,0,0,1.824,1.467c.089.04.178.076.267.109a3.791,3.791,0,0,1-.869-.157,4.622,4.622,0,0,1-1.851-1.132A4.749,4.749,0,0,0,9.215,125c.089.038.179.072.269.1a3.528,3.528,0,0,1-.852-.132,4.444,4.444,0,0,1-1.848-1.091,4.663,4.663,0,0,0,1.8,1.361,3.528,3.528,0,0,0,.338.12,4,4,0,0,1-2.962-2,3.9,3.9,0,0,1,.266-4.464,12.728,12.728,0,0,0,3.048-2.907,14,14,0,0,0,1.657,4.327,14.741,14.741,0,0,0,2.522,3.209,5.054,5.054,0,0,1-.582-.278,6.756,6.756,0,0,1-1.689-1.384,6.9,6.9,0,0,0,1.618,1.674Zm.428-1.6a14.785,14.785,0,0,1-2.29-3.713,11.426,11.426,0,0,1-.989-5.146A5.443,5.443,0,0,1,12.03,108.8c.106-.073.219-.135.331-.2a4.47,4.47,0,0,0-1.385,1.5,6.112,6.112,0,0,0-.691,2.344,11.125,11.125,0,0,0,.781,5.025,14.9,14.9,0,0,0,2.042,3.677,11.831,11.831,0,0,0,3.85,3.392,5.505,5.505,0,0,0,4.6.5c.113-.046.222-.1.332-.155a4.329,4.329,0,0,1-2.062.62,6.092,6.092,0,0,1-2.438-.454,10.745,10.745,0,0,1-4.16-3.108Zm11.057-3.5a9.859,9.859,0,0,1,.16,1.959,8.346,8.346,0,0,1-.225,1.667,9.2,9.2,0,0,0,.047-3.195,13.881,13.881,0,0,0-1.017-3.415,15.751,15.751,0,0,0-4.321-5.854,8.937,8.937,0,0,0-3.13-1.7,8.278,8.278,0,0,1,2.847,1.37A13.712,13.712,0,0,1,21.22,111.8a15.5,15.5,0,0,1,1.95,3.178,13.886,13.886,0,0,1,1.116,3.467Z" transform="translate(-0.001 -107.267)" fill="#2f353f"/>
</svg>
