<svg xmlns="http://www.w3.org/2000/svg" width="25.823" height="23.467" viewBox="0 0 25.823 23.467">
  <path id="bath" d="M25.649,13.736H5.7V7.175A2.318,2.318,0,0,1,6.916,5.111a2.341,2.341,0,0,1,1.347-.271,4.1,4.1,0,0,0,.983,4.172l1.245,1.245a1.173,1.173,0,0,0,1.66,0L16.3,6.107a1.173,1.173,0,0,0,0-1.66L15.055,3.2a4.1,4.1,0,0,0-5.317-.4A4.686,4.686,0,0,0,3.348,7.175v6.561H2.174a1.174,1.174,0,0,0,0,2.348H3.348v3.521A3.515,3.515,0,0,0,5.7,22.91V24.3a1.174,1.174,0,0,0,2.348,0V23.127H19.78V24.3a1.174,1.174,0,0,0,2.348,0V22.91a3.516,3.516,0,0,0,2.348-3.305V16.084h1.174a1.174,1.174,0,1,0,0-2.348ZM10.906,4.862a1.763,1.763,0,0,1,2.49,0l.415.415-2.49,2.49-.415-.415a1.762,1.762,0,0,1,0-2.49ZM22.128,19.605a1.175,1.175,0,0,1-1.174,1.174H6.869A1.175,1.175,0,0,1,5.7,19.605V16.084H22.128Z" transform="translate(-1 -2.008)" fill="#003aa8"/>
</svg>
