<svg xmlns="http://www.w3.org/2000/svg" width="51.217" height="52.303" viewBox="0 0 51.217 52.303">
  <g id="check-svgrepo-com" transform="translate(-5.082 2)">
    <g id="Group_16243" data-name="Group 16243" transform="translate(5.082 -2)">
      <circle id="Ellipse_163" data-name="Ellipse 163" cx="20.5" cy="20.5" r="20.5" transform="translate(5.108 4)" fill="#00a400"/>
      <path id="Path_1084" data-name="Path 1084" d="M55.683,29.2,54.7,27.856a3.227,3.227,0,0,1-.032-3.752l.962-1.357a3.218,3.218,0,0,0-1.112-4.692l-1.464-.791A3.223,3.223,0,0,1,51.4,13.9l.278-1.646a3.209,3.209,0,0,0-3.036-3.741l-1.667-.075a3.211,3.211,0,0,1-2.95-2.319l-.46-1.6A3.205,3.205,0,0,0,39.2,2.459l-1.528.663a3.208,3.208,0,0,1-3.666-.812L32.894,1.07a3.217,3.217,0,0,0-4.821.032l-1.09,1.261a3.22,3.22,0,0,1-3.645.866L21.8,2.6A3.217,3.217,0,0,0,17.47,4.725l-.438,1.6a3.166,3.166,0,0,1-2.9,2.373l-1.667.1A3.2,3.2,0,0,0,9.5,12.582l.3,1.635a3.209,3.209,0,0,1-1.6,3.388l-1.454.812a3.21,3.21,0,0,0-1.037,4.7l.983,1.347a3.227,3.227,0,0,1,.032,3.752l-.962,1.357a3.218,3.218,0,0,0,1.112,4.692l1.464.791a3.223,3.223,0,0,1,1.657,3.367L9.7,40.062A3.209,3.209,0,0,0,12.735,43.8l1.667.075a3.211,3.211,0,0,1,2.95,2.319l.46,1.6a3.205,3.205,0,0,0,4.361,2.052l1.528-.663a3.221,3.221,0,0,1,3.666.8l1.112,1.24A3.217,3.217,0,0,0,33.3,51.2l1.09-1.261a3.22,3.22,0,0,1,3.645-.866l1.539.631A3.217,3.217,0,0,0,43.9,47.577l.438-1.6a3.232,3.232,0,0,1,2.918-2.362l1.667-.1A3.2,3.2,0,0,0,51.9,39.731L51.6,38.1a3.209,3.209,0,0,1,1.6-3.388l1.454-.812A3.208,3.208,0,0,0,55.683,29.2ZM30.692,43.045A16.878,16.878,0,1,1,47.57,26.167,16.878,16.878,0,0,1,30.692,43.045Z" transform="translate(-5.082 0)" fill="#00a400"/>
      <path id="Path_1085" data-name="Path 1085" d="M179.28,195.147l-1.5-1.507a2.293,2.293,0,0,0-3.239-.011h0a2.293,2.293,0,0,0-.011,3.239l1.5,1.507,1.667,1.667a2.229,2.229,0,0,0,3.153.011l1.667-1.657,5.815-5.783a2.293,2.293,0,0,0,.011-3.239h0a2.293,2.293,0,0,0-3.239-.011Z" transform="translate(-155.829 -168.531)" fill="#fff"/>
    </g>
  </g>
</svg>
