<svg id="Clocks_1_" xmlns="http://www.w3.org/2000/svg" width="24.416" height="13.721" viewBox="0 0 24.416 13.721">
  <path id="Clocks" d="M24.043,18.679a1.283,1.283,0,0,0-.98-.479h-.555v-.448a1.513,1.513,0,0,0-1.558-1.46h-.731v-.827a1.443,1.443,0,0,0-.455-1.042,1.612,1.612,0,0,0-2.142,0,1.443,1.443,0,0,0-.455,1.042v3.879H7.248V15.466a1.442,1.442,0,0,0-.455-1.042,1.612,1.612,0,0,0-2.142,0A1.442,1.442,0,0,0,4.2,15.466v.827h-.82a1.517,1.517,0,0,0-1.027.392,1.346,1.346,0,0,0-.441.985v.53H1.358a1.288,1.288,0,0,0-.984.481A1.676,1.676,0,0,0,0,19.753v2.234A1.674,1.674,0,0,0,.375,23.06a1.288,1.288,0,0,0,.984.481h.549v.53a1.347,1.347,0,0,0,.442.986,1.515,1.515,0,0,0,1.027.392H4.2v.827a1.442,1.442,0,0,0,.455,1.041,1.574,1.574,0,0,0,2.142,0,1.441,1.441,0,0,0,.455-1.041V22.4h9.919v3.879a1.442,1.442,0,0,0,.455,1.041,1.574,1.574,0,0,0,2.142,0,1.443,1.443,0,0,0,.455-1.041v-.827h.731a1.513,1.513,0,0,0,1.558-1.46v-.448h.555a1.286,1.286,0,0,0,.98-.479,1.668,1.668,0,0,0,.373-1.068V19.747A1.669,1.669,0,0,0,24.043,18.679Zm-22.685,4.1a.522.522,0,0,1-.4-.206.922.922,0,0,1-.2-.584V19.753a.923.923,0,0,1,.2-.584.522.522,0,0,1,.4-.206h.549v3.815Zm2.018,1.907a.762.762,0,0,1-.511-.191.574.574,0,0,1-.195-.424v-6.4a.574.574,0,0,1,.194-.423.765.765,0,0,1,.512-.192H4.2v7.63Zm3.109,1.59a.667.667,0,0,1-.216.487.84.84,0,0,1-1.095,0,.666.666,0,0,1-.216-.487V15.466a.667.667,0,0,1,.216-.487.811.811,0,0,1,1.095,0,.668.668,0,0,1,.216.487V26.275Zm.763-4.642V20.107h9.919v1.526Zm12.208,4.642a.667.667,0,0,1-.216.487.84.84,0,0,1-1.095,0,.666.666,0,0,1-.216-.487V15.466a.667.667,0,0,1,.216-.487.811.811,0,0,1,1.095,0,.666.666,0,0,1,.216.487V26.275Zm2.289-2.286a.751.751,0,0,1-.795.7h-.731v-7.63h.731a.751.751,0,0,1,.795.7v6.237Zm1.907-2a.918.918,0,0,1-.2.58.518.518,0,0,1-.394.2h-.555V18.963h.555a.518.518,0,0,1,.394.2.915.915,0,0,1,.2.58Z" transform="translate(0 -14.017)" fill="#003aa8"/>
</svg>
