<svg width="142" height="142" viewBox="0 0 142 142" fill="none" xmlns="http://www.w3.org/2000/svg">
<path d="M107.402 85.5621L114.453 85.9251L113.938 95.9323C113.887 96.9336 113.033 97.7037 112.032 97.6522L108.607 97.476C107.606 97.4244 106.836 96.5708 106.887 95.5694L107.402 85.5621ZM93.3524 89.8058L100.404 90.1687L99.8885 100.176C99.837 101.177 98.9834 101.947 97.9819 101.896L94.5573 101.72C93.5559 101.668 92.7859 100.814 92.8373 99.813L93.3524 89.8058ZM32.2716 81.6952L25.2204 81.3322L24.7053 91.3394C24.6538 92.3408 25.4238 93.1944 26.4252 93.2461L29.8499 93.4223C30.8512 93.4739 31.7048 92.7038 31.7565 91.7024L32.2716 81.6952ZM46.437 86.7944L39.3858 86.4314L38.8707 96.4386C38.8192 97.44 39.5892 98.2936 40.5907 98.3453L44.0153 98.5215C45.0166 98.5731 45.8702 97.803 45.9219 96.8016L46.437 86.7944Z" fill="#3D6687"/>
<path d="M18.6474 65.9897L70.6194 76.2877L123.374 71.3803C125.223 71.2082 126.794 72.7158 126.699 74.5701L126.382 80.7179C126.313 82.0639 125.846 83.359 125.04 84.4396C124.235 85.5201 123.127 86.3375 121.857 86.7884L69.1153 105.509L18.5744 81.4722C17.3573 80.8934 16.3393 79.9666 15.649 78.809C14.9587 77.6515 14.6272 76.3152 14.6965 74.9693L15.0129 68.8214C15.1083 66.9672 16.826 65.6289 18.6474 65.9897ZM49.3613 25.9743L73.1631 30.6001L97.3139 28.4425C98.1054 28.372 98.7763 29.018 98.7353 29.8115L98.5729 32.9675C98.5194 34.0059 98.1507 35.0033 97.516 35.8269C96.8812 36.6504 96.0105 37.2609 95.0199 37.577L72.4329 44.7848L50.7053 35.2962C49.7524 34.88 48.949 34.1834 48.4021 33.299C47.8553 32.4146 47.5909 31.3846 47.6443 30.3462L47.8067 27.1902C47.8476 26.3966 48.5813 25.8229 49.3613 25.9743Z" fill="#CCDFED"/>
<path d="M58.2974 35.6015C58.4294 33.0369 60.8003 31.1828 63.321 31.6727L73.0108 33.556L73.0121 33.5298L98.6617 31.2418L98.7353 29.8115C98.7762 29.0179 98.1053 28.3718 97.3138 28.4424L73.1629 30.6L49.3612 25.9742C48.5813 25.8226 47.8475 26.3965 47.8068 27.19L47.6443 30.3459C47.5909 31.3844 47.8552 32.4144 48.4021 33.2988C48.949 34.1831 49.7524 34.8798 50.7053 35.2959L58.146 38.5452L58.2974 35.6015ZM14.996 77.3355C15.0578 77.5349 15.1254 77.7322 15.2051 77.9244C15.3695 78.3177 15.5704 78.6947 15.8051 79.0505C16.4882 80.097 17.4464 80.9349 18.5746 81.4724L25.9213 84.9665L26.3881 85.1885C25.5207 83.9468 25.0922 82.4512 25.1704 80.9386L25.4868 74.7907C25.5823 72.9365 27.3 71.5982 29.1212 71.9591L70.421 80.1421L126.675 75.0349L126.699 74.5701C126.761 73.3517 126.102 72.2867 125.12 71.7456C124.588 71.4508 123.979 71.3234 123.374 71.3801L89.0985 74.5686L70.6194 76.2877L52.4143 72.6804L18.6474 65.9897C18.051 65.8711 17.4326 65.9354 16.8732 66.1739C15.8407 66.6112 15.0756 67.603 15.0129 68.8214L14.6965 74.9693C14.6561 75.7695 14.7576 76.5705 14.996 77.3355Z" fill="#BAD5E5"/>
<path d="M69.6803 26.735C71.0833 23.3374 75.9774 23.5893 77.0242 27.113C79.3509 34.9451 80.6136 43.0546 80.7784 51.2233L81.9107 107.357C82.0782 115.662 79.0251 123.709 73.391 129.813L71.8559 131.476C69.7159 133.795 65.9969 133.603 64.1062 131.077L62.7499 129.265C57.7724 122.615 55.5617 114.297 56.5809 106.053L63.4706 50.3324C64.4731 42.2238 66.5617 34.2868 69.6803 26.735Z" fill="#61AFF6"/>
<path d="M62.7499 129.265L64.1062 131.077C65.9969 133.603 69.7159 133.795 71.8559 131.476L73.3911 129.813C73.411 129.791 73.4302 129.769 73.4503 129.747C68.5092 123.108 66.3183 114.82 67.3335 106.607L73.46 24.3281C71.9385 24.2594 70.3778 25.0458 69.6803 26.735C66.5618 34.2869 64.4732 42.2238 63.4706 50.3324L56.581 106.054C55.5616 114.297 57.7723 122.615 62.7499 129.265Z" fill="#399AEA"/>
<path d="M75.7676 117.281C75.9197 117.165 76.0475 117.021 76.1438 116.857C76.2402 116.692 76.3031 116.51 76.3292 116.321C76.3552 116.132 76.3437 115.94 76.2954 115.755C76.2471 115.571 76.163 115.398 76.0477 115.246C75.9325 115.094 75.7885 114.966 75.6238 114.869C75.4592 114.773 75.2772 114.71 75.0882 114.684C74.8993 114.658 74.707 114.669 74.5225 114.718C74.3379 114.766 74.1647 114.85 74.0127 114.965C70.5285 117.606 66.8504 117.417 63.656 114.432C63.4062 114.198 63.0815 114.06 62.7397 114.043C62.4422 114.028 62.1472 114.104 61.8947 114.262C61.6422 114.42 61.4443 114.652 61.3278 114.926C61.2113 115.2 61.182 115.503 61.2436 115.795C61.3053 116.086 61.4551 116.352 61.6726 116.555C65.8943 120.5 71.1637 120.771 75.7676 117.281Z" fill="black"/>
<path d="M123.24 69.9339L82.6847 73.7065L82.3491 57.0694C82.3373 56.687 82.1752 56.3247 81.8979 56.0611C81.6206 55.7976 81.2505 55.6541 80.868 55.6618C80.4855 55.6695 80.1215 55.8278 79.855 56.1023C79.5885 56.3768 79.4411 56.7454 79.4448 57.1279L79.8119 75.3261L79.8118 75.3266L80.4586 107.386C80.6194 115.356 77.7304 122.97 72.3238 128.828L70.7886 130.491C70.4313 130.879 69.9928 131.183 69.5042 131.383C69.0156 131.582 68.4891 131.67 67.9622 131.642C67.4353 131.616 66.9207 131.474 66.4552 131.225C65.9897 130.977 65.5847 130.629 65.2691 130.207L63.9127 128.395C60.7656 124.185 58.7494 119.24 58.0563 114.03C58.0007 113.653 57.7988 113.312 57.4942 113.082C57.1895 112.852 56.8067 112.752 56.4284 112.802C56.0501 112.852 55.7067 113.049 55.4724 113.35C55.2381 113.651 55.1317 114.033 55.1763 114.412C55.9351 120.114 58.1422 125.528 61.5871 130.135L62.9435 131.947C63.5141 132.712 64.2464 133.341 65.0881 133.789C65.9299 134.238 66.8602 134.496 67.8129 134.544C68.7654 134.594 69.7173 134.433 70.6006 134.073C71.4839 133.713 72.2769 133.162 72.9231 132.461L74.4584 130.798C80.3764 124.386 83.5389 116.051 83.3627 107.328L83.2559 102.031L91.4179 99.1335L91.3868 99.7379C91.2943 101.538 92.6831 103.077 94.4828 103.17L97.9074 103.347C99.7068 103.439 101.247 102.05 101.339 100.251L101.583 95.526L105.506 94.1332L105.436 95.4948C105.344 97.2946 106.733 98.834 108.532 98.9266L111.957 99.1029C113.757 99.1953 115.296 97.8062 115.389 96.007L115.671 90.5253L122.343 88.1573C125.506 87.0348 127.66 84.144 127.833 80.7927L128.149 74.6446C128.183 74 128.077 73.3558 127.839 72.7558C127.601 72.1557 127.237 71.6139 126.771 71.1672C126.305 70.7202 125.749 70.3787 125.14 70.1659C124.53 69.9531 123.882 69.874 123.24 69.9339ZM98.438 100.101C98.4356 100.149 98.4238 100.195 98.4033 100.238C98.3828 100.282 98.3541 100.32 98.3187 100.352C98.2832 100.384 98.2419 100.409 98.1969 100.425C98.152 100.441 98.1044 100.448 98.0567 100.445L94.6321 100.269C94.4322 100.259 94.2777 100.087 94.288 99.8877L94.3811 98.0821L98.6195 96.5776L98.438 100.101ZM112.488 95.8576C112.485 95.9052 112.474 95.9519 112.453 95.995C112.433 96.0381 112.404 96.0767 112.368 96.1086C112.333 96.1406 112.292 96.1652 112.247 96.1812C112.202 96.1971 112.154 96.204 112.106 96.2016L108.682 96.0253C108.586 96.0203 108.496 95.9773 108.431 95.9058C108.367 95.8344 108.333 95.7403 108.338 95.6442L108.47 93.0817L112.708 91.5772L112.488 95.8576ZM125.248 74.4954L124.931 80.6432C124.897 81.3458 124.723 82.0345 124.422 82.67C124.12 83.3055 123.696 83.8753 123.174 84.3466C122.661 84.8099 122.052 85.178 121.371 85.4199L83.1939 98.9705L82.743 76.6191L123.509 72.8265C123.736 72.8038 123.966 72.8311 124.183 72.9066C124.399 72.982 124.596 73.1038 124.76 73.2633C124.926 73.4208 125.056 73.6126 125.14 73.8254C125.224 74.0382 125.261 74.2669 125.248 74.4954Z" fill="black"/>
<path d="M26.3503 94.6965L29.7752 94.873C31.5752 94.9654 33.1145 93.5763 33.2072 91.7771L33.2945 90.0814L37.6369 92.1467L37.4199 96.3641C37.3274 98.1639 38.7161 99.7033 40.5157 99.7959L43.9406 99.9725C45.7405 100.065 47.28 98.6759 47.3725 96.8764L47.3775 96.7793L55.7703 100.771L55.1391 105.876C55.0925 106.253 55.0522 106.632 55.0182 107.011C55.0011 107.201 55.0216 107.393 55.0786 107.575C55.1356 107.757 55.2279 107.926 55.3502 108.072C55.4725 108.219 55.6224 108.339 55.7915 108.428C55.9605 108.516 56.1453 108.57 56.3353 108.587C56.5253 108.604 56.7167 108.584 56.8988 108.527C57.0808 108.47 57.2498 108.378 57.3962 108.255C57.5425 108.133 57.6633 107.983 57.7517 107.814C57.8402 107.645 57.8944 107.46 57.9114 107.27C57.9426 106.924 57.9795 106.577 58.0221 106.232L64.9121 50.5106C65.2724 47.6011 65.7752 44.711 66.4187 41.8508C67.3085 37.8953 68.4646 34.0044 69.8791 30.2049L69.8799 30.2023C70.2439 29.2247 70.6248 28.2536 71.0227 27.2894C71.5094 26.1104 72.5757 25.7361 73.4111 25.779C74.2465 25.8221 75.2687 26.3039 75.6321 27.5266C75.9477 28.5922 76.2436 29.6636 76.5193 30.7403C76.6234 31.1439 76.7247 31.5483 76.8231 31.9535C76.8452 32.0448 76.8659 32.1363 76.8879 32.2277C76.9835 32.6267 77.0763 33.0264 77.1664 33.4266C77.1852 33.5104 77.203 33.5946 77.2216 33.6785C77.3125 34.0885 77.4006 34.4991 77.4858 34.9103C77.5015 34.9866 77.5165 35.0631 77.5322 35.1394C77.6176 35.5573 77.7 35.9759 77.7793 36.395C77.7937 36.471 77.8074 36.5472 77.8216 36.6233C77.8994 37.0396 77.9742 37.4564 78.046 37.8737C78.0607 37.9588 78.0747 38.0437 78.0892 38.1288C78.1744 38.6338 78.2554 39.1396 78.3322 39.6459C78.4657 40.5265 78.5859 41.4091 78.6927 42.2934C79.0188 44.98 79.223 47.68 79.3046 50.385C79.3218 50.7662 79.4881 51.1252 79.7678 51.3847C80.0474 51.6442 80.4179 51.7833 80.7993 51.7719C81.1806 51.7605 81.5421 51.5996 81.8058 51.3239C82.0695 51.0481 82.2141 50.6798 82.2085 50.2983C82.1381 47.9742 81.9802 45.6536 81.735 43.3414L95.4617 38.9611C98.0516 38.1348 99.8846 35.7564 100.024 33.0424L100.186 29.8863C100.206 29.4918 100.142 29.0974 99.9967 28.73C99.8515 28.3626 99.629 28.0307 99.3445 27.7567C99.0599 27.4826 98.7198 27.2729 98.3471 27.1417C97.9745 27.0105 97.578 26.9608 97.1845 26.996L78.963 28.6239C78.7879 27.9805 78.6058 27.3389 78.4168 26.6993C77.762 24.496 75.8557 22.996 73.5604 22.8779C72.0961 22.8024 70.7318 23.3026 69.708 24.2262C69.1268 24.7505 68.6554 25.4114 68.3377 26.1807C68.084 26.7974 67.837 27.4168 67.5967 28.0389L49.6386 24.5487C49.2508 24.4732 48.8513 24.4819 48.4671 24.5741C48.083 24.6663 47.7231 24.84 47.4119 25.0834C47.1007 25.3268 46.8454 25.6342 46.6633 25.9848C46.4812 26.3354 46.3765 26.721 46.3563 27.1156L46.1941 30.2712C46.0541 32.9852 47.6337 35.5395 50.1241 36.6272L63.3268 42.3929C62.7844 44.9604 62.3515 47.5498 62.0292 50.1541L59.2593 72.5558L18.9299 64.5649C18.2429 64.4285 17.5335 64.4545 16.8583 64.6409C16.1831 64.8272 15.5609 65.1687 15.0411 65.6382C14.1585 66.4344 13.6239 67.5506 13.5624 68.7469L13.2459 74.8945C13.0733 78.2459 14.9199 81.3426 17.9503 82.7839L23.5537 85.4488L23.2543 91.2648C23.162 93.0644 24.5507 94.6038 26.3503 94.6965ZM97.2763 29.9043L97.1223 32.8929C97.0444 34.4062 96.022 35.7326 94.5783 36.1932L81.3783 40.4054C81.3718 40.3576 81.3643 40.3096 81.3576 40.262C81.3187 39.9836 81.2785 39.7053 81.2372 39.4272C81.217 39.2917 81.1961 39.1562 81.1752 39.0209C81.029 38.0686 80.8681 37.1186 80.6924 36.1713C80.6704 36.0531 80.649 35.9348 80.6266 35.8167C80.5731 35.535 80.5183 35.2537 80.4622 34.9725C80.4333 34.8271 80.4036 34.6819 80.3739 34.5367C80.3181 34.2634 80.2622 33.9903 80.204 33.7177C80.1744 33.5787 80.1431 33.4402 80.1129 33.3014C80.0137 32.8472 79.9111 32.3936 79.8051 31.9409C79.7687 31.7856 79.7336 31.6298 79.6965 31.4749L97.2763 29.9043ZM51.2865 33.9649C49.8979 33.3584 49.017 31.9343 49.095 30.4206L49.2487 27.4322L66.5744 30.7995C66.488 31.0449 66.4041 31.2913 66.3199 31.5377C66.1996 31.8894 66.0815 32.2417 65.9655 32.5948C65.9107 32.7616 65.8558 32.9281 65.8018 33.0952C65.7156 33.3623 65.6309 33.6297 65.5471 33.8976C65.5053 34.0316 65.4642 34.166 65.4228 34.3004C65.1378 35.2271 64.8674 36.1582 64.6115 37.0934C64.5782 37.2156 64.5446 37.3379 64.5116 37.4602C64.4334 37.7502 64.3567 38.0406 64.2813 38.3314C64.2511 38.4481 64.222 38.5651 64.1922 38.6819C64.122 38.9578 64.0503 39.2332 63.9827 39.5096L51.2865 33.9649ZM44.4714 96.7268C44.4664 96.8229 44.4235 96.9132 44.352 96.9777C44.2806 97.0422 44.1864 97.0757 44.0903 97.0709L40.6653 96.8943C40.5692 96.8893 40.4791 96.8463 40.4146 96.7749C40.3501 96.7034 40.3167 96.6093 40.3215 96.5132L40.4766 93.4969L44.5382 95.4287L44.4714 96.7268ZM16.1473 75.0438L16.4637 68.896C16.4877 68.4272 16.7061 68.0114 17.0756 67.7206C17.2553 67.5788 17.4637 67.4779 17.6864 67.425C17.9092 67.3721 18.1407 67.3685 18.365 67.4144L58.9017 75.4467L56.1462 97.7322C56.1466 97.7324 56.1458 97.7321 56.1462 97.7322L19.1983 80.1603C19.1985 80.1605 19.1982 80.1602 19.1983 80.1603C18.2393 79.7067 17.4371 78.9778 16.8937 78.0666C16.3504 77.1555 16.0905 76.1032 16.1473 75.0438ZM26.156 91.4141L26.3934 86.7993L30.4552 88.7311L30.306 91.6279C30.301 91.724 30.2581 91.8143 30.1866 91.8788C30.1151 91.9433 30.021 91.9768 29.9248 91.972L26.5 91.7955L26.4999 91.7954C26.4038 91.7904 26.3135 91.7474 26.249 91.6759C26.1846 91.6044 26.1511 91.5103 26.156 91.4141Z" fill="black"/>
</svg>
