<svg width="142" height="142" viewBox="0 0 142 142" fill="none" xmlns="http://www.w3.org/2000/svg">
<path d="M84.2899 33.6366L84.3998 26.5769L94.419 26.7329C95.4216 26.7485 96.2217 27.574 96.2063 28.5766L96.1529 32.0054C96.1373 33.0079 95.3118 33.8081 94.3092 33.7926L84.2899 33.6366ZM89.0345 47.5253L89.1444 40.4656L99.1637 40.6216C100.166 40.6372 100.966 41.4626 100.951 42.4653L100.898 45.8941C100.882 46.8966 100.056 47.6968 99.0538 47.6813L89.0345 47.5253ZM83.1191 108.858L83.0092 115.917L93.0284 116.073C94.0309 116.089 94.8564 115.289 94.8721 114.286L94.9255 110.857C94.9411 109.855 94.141 109.029 93.1383 109.014L83.1191 108.858ZM87.7071 94.5185L87.5972 101.578L97.6165 101.734C98.619 101.75 99.4445 100.95 99.4602 99.947L99.5136 96.5182C99.5292 95.5157 98.729 94.6902 97.7264 94.6745L87.7071 94.5185Z" fill="#3D6687"/>
<path d="M67.9121 123.036L76.3402 70.7284L69.5445 18.1836C69.3063 16.3423 70.7566 14.718 72.6131 14.7469L78.7683 14.8427C80.1159 14.8637 81.427 15.2839 82.5357 16.0501C83.6444 16.8164 84.501 17.8942 84.9971 19.1473L105.596 71.1839L83.3874 122.554C82.8525 123.791 81.9628 124.842 80.8307 125.573C79.6987 126.304 78.3752 126.684 77.0276 126.663L70.8724 126.567C69.0159 126.538 67.6169 124.869 67.9121 123.036ZM26.8213 93.7766L30.5908 69.8244L27.5687 45.7664C27.4698 44.978 28.0914 44.2843 28.8858 44.2968L32.0456 44.346C33.0853 44.3622 34.0953 44.6949 34.9411 45.2997C35.7868 45.9046 36.4282 46.7529 36.7795 47.7315L44.7925 70.0455L36.089 92.0993C35.7073 93.0665 35.0399 93.8944 34.1757 94.4726C33.3115 95.0508 32.2916 95.352 31.252 95.3358L28.0922 95.2866C27.2976 95.2743 26.6979 94.5616 26.8213 93.7766Z" fill="#CCDFED"/>
<path d="M36.1219 84.5011C33.5543 84.4612 31.6164 82.1583 32.0155 79.6217L33.5502 69.8706L33.524 69.8702L30.3178 44.3191L28.8858 44.2968C28.0913 44.2845 27.4697 44.9781 27.5686 45.7665L30.5907 69.8245L26.8212 93.7768C26.6977 94.5616 27.2975 95.2744 28.0919 95.2866L31.2517 95.3358C32.2914 95.352 33.3113 95.0509 34.1755 94.4727C35.0396 93.8945 35.7071 93.0666 36.0887 92.0993L39.0692 84.5469L36.1219 84.5011ZM79.3815 126.278C79.5786 126.21 79.7734 126.135 79.9626 126.048C80.3498 125.87 80.7194 125.656 81.0665 125.408C82.0878 124.688 82.8908 123.701 83.3875 122.554L86.6159 115.087L86.8211 114.612C85.6112 115.523 84.132 116.005 82.6176 115.981L76.4623 115.886C74.6059 115.857 73.2068 114.188 73.5022 112.355L80.1992 70.7885L73.0785 14.7541L72.6131 14.7469C71.3932 14.7279 70.3525 15.4247 69.847 16.4258C69.5714 16.9679 69.466 17.5806 69.5444 18.1837L73.9597 52.3228L76.3402 70.7284L73.3879 89.0511L67.9121 123.036C67.8151 123.636 67.9014 124.252 68.1599 124.803C68.6339 125.819 69.6525 126.548 70.8724 126.567L77.0276 126.663C77.8287 126.674 78.6256 126.544 79.3815 126.278Z" fill="#BAD5E5"/>
<path d="M26.8531 73.4435C23.4073 72.1631 23.4836 67.2632 26.9675 66.0907C34.7112 63.4847 42.7701 61.9321 50.9277 61.4746L106.985 58.3304C115.278 57.8653 123.43 60.6279 129.732 66.0395L131.449 67.514C133.842 69.5695 133.785 73.293 131.328 75.273L129.566 76.6934C123.099 81.9061 114.865 84.4137 106.59 83.6906L50.6579 78.8032C42.5185 78.092 34.5118 76.2893 26.8531 73.4435Z" fill="#61AFF6"/>
<path d="M129.566 76.6934L131.328 75.273C133.785 73.293 133.842 69.5695 131.449 67.514L129.732 66.0395C129.709 66.0203 129.686 66.0019 129.664 65.9826C123.206 71.1585 115.002 73.6452 106.758 72.9252L24.3121 69.7525C24.2981 71.2755 25.1399 72.807 26.8531 73.4435C34.5118 76.2892 42.5186 78.0919 50.6579 78.8032L106.59 83.6905C114.865 84.4138 123.099 81.9063 129.566 76.6934Z" fill="#399AEA"/>
<path d="M117.122 64.1137C117.001 63.966 116.853 63.8434 116.685 63.753C116.517 63.6626 116.333 63.6062 116.143 63.587C115.953 63.5678 115.762 63.5861 115.579 63.641C115.396 63.6959 115.226 63.7862 115.078 63.9068C114.931 64.0274 114.808 64.1759 114.718 64.3439C114.627 64.5119 114.571 64.696 114.552 64.8858C114.532 65.0756 114.551 65.2673 114.606 65.45C114.66 65.6327 114.751 65.8028 114.871 65.9505C117.636 69.3378 117.578 73.0204 114.71 76.3197C114.485 76.5777 114.359 76.9071 114.354 77.2494C114.349 77.5472 114.436 77.8393 114.603 78.086C114.77 78.3327 115.009 78.5222 115.287 78.6287C115.565 78.7353 115.869 78.7537 116.158 78.6817C116.447 78.6096 116.707 78.4504 116.902 78.2257C120.693 73.8653 120.775 68.5896 117.122 64.1137Z" fill="black"/>
<path d="M68.1039 18.3698L73.328 58.7634L56.7137 59.6953C56.332 59.7207 55.9757 59.8957 55.7223 60.1823C55.4688 60.4689 55.3387 60.8439 55.3601 61.2259C55.3815 61.6079 55.5527 61.966 55.8366 62.2224C56.1205 62.4789 56.4941 62.613 56.8763 62.5956L75.0496 61.5763L75.0502 61.5763L107.066 59.7805C115.025 59.3341 122.738 61.9482 128.785 67.1413L130.502 68.616C130.903 68.9591 131.223 69.3864 131.44 69.8676C131.656 70.3487 131.764 70.8717 131.755 71.3992C131.747 71.9267 131.623 72.4461 131.392 72.9202C131.161 73.3944 130.827 73.8116 130.416 74.1421L128.654 75.5626C124.56 78.8586 119.69 81.0508 114.509 81.9302C114.133 81.9993 113.8 82.2133 113.582 82.526C113.363 82.8386 113.276 83.2249 113.339 83.6011C113.403 83.9774 113.612 84.3135 113.922 84.5369C114.231 84.7602 114.616 84.8528 114.993 84.7947C120.665 83.8319 125.996 81.4322 130.477 77.8243L132.239 76.4038C132.983 75.8061 133.585 75.0517 134.003 74.1945C134.422 73.3372 134.646 72.3982 134.659 71.4444C134.675 70.4907 134.48 69.5452 134.089 68.6754C133.697 67.8056 133.119 67.0328 132.395 66.4121L130.678 64.9375C124.058 59.2531 115.615 56.3916 106.903 56.8804L101.613 57.1771L98.4256 49.1242L99.0308 49.1336C100.833 49.1615 102.321 47.7183 102.35 45.9165L102.403 42.4878C102.431 40.6863 100.988 39.1972 99.1864 39.169L94.456 39.0954L92.9235 35.224L94.2867 35.2452C96.0886 35.2731 97.5773 33.8301 97.6053 32.0283L97.6587 28.5992C97.6865 26.7972 96.243 25.3087 94.4417 25.2805L88.9534 25.195L86.3477 18.6125C85.1126 15.4922 82.1464 13.4427 78.7911 13.3901L72.6356 13.2943C71.9902 13.2841 71.3502 13.413 70.7591 13.6722C70.1679 13.9314 69.6395 14.3148 69.2098 14.7964C68.7798 15.2778 68.4585 15.8461 68.2677 16.4627C68.0768 17.0793 68.021 17.7297 68.1039 18.3698ZM99.1409 42.0739C99.1886 42.0746 99.2357 42.0847 99.2795 42.1036C99.3232 42.1225 99.3629 42.1499 99.396 42.1841C99.4292 42.2184 99.4554 42.2588 99.4729 42.3032C99.4904 42.3475 99.4991 42.3949 99.4983 42.4426L99.4449 45.8713C99.442 46.0714 99.2763 46.232 99.0764 46.2289L97.2687 46.2006L95.6132 42.0188L99.1409 42.0739ZM94.3964 28.1853C94.4441 28.1861 94.4912 28.1962 94.535 28.2151C94.5787 28.234 94.6184 28.2614 94.6515 28.2956C94.6847 28.3298 94.7109 28.3703 94.7284 28.4146C94.746 28.459 94.7546 28.5063 94.7538 28.554L94.7005 31.9828C94.6989 32.079 94.6592 32.1707 94.5901 32.2377C94.521 32.3046 94.4281 32.3415 94.3319 32.34L91.7663 32.3002L90.1108 28.1185L94.3964 28.1853ZM72.5905 16.1993L78.7457 16.2951C79.449 16.3048 80.1436 16.4531 80.7895 16.7317C81.4354 17.0102 82.0199 17.4135 82.5097 17.9184C82.9911 18.415 83.3808 19.0104 83.6469 19.6823L98.5576 57.3487L76.2367 58.6007L70.985 17.9971C70.9541 17.7703 70.9732 17.5396 71.0409 17.3209C71.1085 17.1022 71.2231 16.901 71.3767 16.7313C71.528 16.5596 71.7151 16.423 71.9248 16.3311C72.1344 16.2392 72.3616 16.1943 72.5905 16.1993Z" fill="black"/>
<path d="M96.3243 114.309L96.3779 110.88C96.4057 109.078 94.9623 107.589 93.1609 107.561L91.4632 107.535L93.3715 103.121L97.594 103.187C99.3959 103.215 100.885 101.772 100.913 99.9699L100.966 96.5408C100.994 94.7388 99.5508 93.2501 97.7491 93.2222L97.6519 93.2207L101.34 84.6901L106.464 85.1379C106.843 85.1709 107.223 85.1976 107.603 85.218C107.794 85.2283 107.984 85.2009 108.164 85.1374C108.344 85.074 108.51 84.9757 108.652 84.8482C108.794 84.7207 108.909 84.5665 108.991 84.3944C109.074 84.2224 109.121 84.0357 109.131 83.8453C109.141 83.6548 109.114 83.4642 109.051 83.2843C108.987 83.1045 108.889 82.9389 108.761 82.797C108.634 82.6551 108.48 82.5397 108.308 82.4574C108.136 82.3751 107.949 82.3276 107.758 82.3174C107.411 82.2986 107.064 82.2741 106.717 82.244L50.7843 77.3562C47.8637 77.1004 44.9575 76.7015 42.076 76.161C38.0912 75.4136 34.1614 74.3977 30.3135 73.1204L30.3109 73.1196C29.321 72.791 28.3368 72.4451 27.3589 72.0821C26.1632 71.6379 25.751 70.5858 25.7639 69.7494C25.777 68.913 26.2218 67.8742 27.4308 67.4671C28.4844 67.1135 29.5445 66.7794 30.6105 66.4652C31.0102 66.3467 31.4107 66.231 31.812 66.1182C31.9025 66.0928 31.9932 66.0688 32.0838 66.0436C32.4791 65.9337 32.8752 65.8266 33.272 65.7223C33.355 65.7005 33.4385 65.6797 33.5217 65.6581C33.9282 65.5525 34.3354 65.4498 34.7432 65.3499C34.8189 65.3314 34.8948 65.3137 34.9705 65.2953C35.3851 65.1949 35.8004 65.0976 36.2165 65.0033C36.2919 64.9863 36.3676 64.9698 36.4431 64.9528C36.8563 64.8602 37.2701 64.7705 37.6846 64.6838C37.7691 64.666 37.8535 64.649 37.938 64.6315C38.4397 64.5282 38.9422 64.4292 39.4454 64.3342C40.3207 64.1693 41.1984 64.0175 42.0782 63.8791C44.7514 63.4569 47.4424 63.156 50.1428 62.9774C50.5231 62.9466 50.8759 62.7675 51.1252 62.4787C51.3745 62.1899 51.5002 61.8147 51.4752 61.434C51.4501 61.0533 51.2763 60.6978 50.9913 60.4442C50.7063 60.1906 50.333 60.0592 49.952 60.0785C47.6319 60.2322 45.3184 60.4732 43.0165 60.8011L38.1469 47.2403C37.2283 44.6817 34.7857 42.9352 32.0685 42.8933L28.9086 42.8443C28.5136 42.8381 28.1218 42.9168 27.7598 43.0751C27.3979 43.2334 27.0741 43.4675 26.8105 43.7618C26.5468 44.056 26.3494 44.4034 26.2317 44.7805C26.1139 45.1576 26.0784 45.5556 26.1278 45.9476L28.4079 64.099C27.7711 64.2971 27.1365 64.5021 26.5041 64.7139C24.3257 65.4472 22.8951 67.4061 22.8593 69.7042C22.8363 71.1703 23.3851 72.5157 24.3449 73.5058C24.8896 74.0677 25.567 74.5152 26.3472 74.8051C26.9726 75.0365 27.6005 75.2611 28.2308 75.479L25.3867 93.5507C25.3251 93.941 25.3481 94.3399 25.4541 94.7205C25.56 95.1011 25.7465 95.4545 26.0009 95.7568C26.2553 96.0591 26.5716 96.3032 26.9285 96.4726C27.2854 96.642 27.6746 96.7328 28.0696 96.7388L31.2289 96.7878C33.9463 96.8304 36.4423 95.1603 37.44 92.6324L42.7286 79.2315C45.3139 79.6815 47.9172 80.0213 50.5314 80.25L73.0179 82.215L66.4781 122.805C66.3664 123.496 66.4179 124.204 66.6283 124.872C66.8388 125.541 67.2024 126.15 67.6902 126.653C68.5175 127.506 69.6521 128 70.8499 128.019L77.0048 128.115C80.3603 128.167 83.3889 126.211 84.7205 123.131L87.1828 117.435L93.0058 117.526C94.8076 117.554 96.2962 116.111 96.3243 114.309ZM29.0309 45.7516L32.0231 45.7983C33.5382 45.8219 34.9004 46.7961 35.4125 48.2224L40.0952 61.2628C40.0477 61.2711 40 61.2803 39.9527 61.2887C39.6758 61.3376 39.3991 61.3877 39.1227 61.439C38.988 61.464 38.8534 61.4898 38.7189 61.5154C37.7724 61.6957 36.8289 61.8906 35.8885 62.1001C35.7711 62.1263 35.6537 62.152 35.5364 62.1786C35.2569 62.2421 34.9776 62.307 34.6987 62.3732C34.5544 62.4073 34.4103 62.4422 34.2663 62.4771C33.9952 62.5426 33.7243 62.6083 33.4539 62.6762C33.3161 62.7108 33.1788 62.747 33.0412 62.7822C32.5908 62.8976 32.1412 63.0164 31.6925 63.1385C31.5387 63.1805 31.3842 63.2212 31.2308 63.2638L29.0309 45.7516ZM34.7378 91.5663C34.1814 92.9757 32.7898 93.9071 31.2743 93.8834L28.2823 93.8369L31.0263 76.4017C31.2747 76.4792 31.5239 76.5542 31.7731 76.6295C32.1289 76.7371 32.4853 76.8426 32.8423 76.9458C33.0108 76.9946 33.1793 77.0435 33.3482 77.0914C33.6182 77.168 33.8885 77.2431 34.1592 77.3172C34.2946 77.3542 34.4304 77.3905 34.5662 77.427C35.5025 77.6785 36.4427 77.9154 37.3865 78.1376C37.5098 78.1666 37.6332 78.1957 37.7567 78.2243C38.0493 78.292 38.3422 78.3583 38.6355 78.4232C38.7532 78.4492 38.8712 78.4741 38.989 78.4997C39.2672 78.56 39.545 78.6218 39.8237 78.6794L34.7378 91.5663ZM97.7036 96.1268C97.7999 96.1283 97.8916 96.168 97.9587 96.2371C98.0257 96.3062 98.0626 96.3991 98.0612 96.4953L98.0075 99.9244C98.0059 100.021 97.9662 100.112 97.8971 100.179C97.828 100.246 97.7352 100.283 97.6389 100.282L94.6191 100.235L96.4039 96.1065L97.7036 96.1268ZM77.0501 125.21L70.8949 125.114C70.4255 125.107 70.0021 124.904 69.6983 124.545C69.5501 124.37 69.4418 124.166 69.381 123.945C69.3201 123.724 69.3082 123.493 69.3461 123.267L75.9198 82.4687L98.2898 84.4235C98.2897 84.4239 98.29 84.423 98.2898 84.4235L82.0539 121.978C82.0538 121.978 82.054 121.977 82.0539 121.978C81.6349 122.952 80.9353 123.78 80.0442 124.356C79.1531 124.931 78.1108 125.229 77.0501 125.21ZM93.051 114.621L88.4307 114.549L90.2155 110.421L93.1158 110.466C93.2121 110.467 93.3038 110.507 93.3709 110.576C93.4379 110.645 93.4748 110.738 93.4734 110.834L93.4199 114.263L93.4197 114.263C93.4182 114.36 93.3785 114.451 93.3093 114.518C93.2402 114.585 93.1473 114.622 93.051 114.621Z" fill="black"/>
</svg>
