<svg id="glass-and-bottle-of-wine" xmlns="http://www.w3.org/2000/svg" width="17.921" height="23.701" viewBox="0 0 17.921 23.701">
  <path id="Path_15" data-name="Path 15" d="M11.019,11.953a5.514,5.514,0,0,0-.7-2.732l-.11-.192H3.341l-.107.192a5.523,5.523,0,0,0-.7,2.732,4.77,4.77,0,0,0,3.642,4.9v5.817c-1.187.048-2.071.228-2.071.442,0,.254,1.2.457,2.692.457s2.7-.2,2.7-.457c0-.214-.884-.394-2.071-.442V16.845A4.784,4.784,0,0,0,11.019,11.953ZM6.773,16.14c-1.921,0-3.486-1.878-3.486-4.19a4.8,4.8,0,0,1,.5-2.166H9.758a4.816,4.816,0,0,1,.5,2.166C10.263,14.264,8.7,16.14,6.773,16.14ZM18.286,2.618H15.268V0h3.019Zm0,3.244V3.423H15.268v2.44A3.672,3.672,0,0,0,13.1,9.211V23.7h7.349V9.211A3.668,3.668,0,0,0,18.286,5.862ZM19.8,20.006H13.816V12.824H19.8ZM9.945,12.032s-.159,3.8-3.12,3.8-3.361-3.8-3.361-3.8Z" transform="translate(-2.53)" fill="#003aa8"/>
</svg>
