<svg id="sports-car" xmlns="http://www.w3.org/2000/svg" width="24.326" height="17.217" viewBox="0 0 24.326 17.217">
  <g id="Group_25" data-name="Group 25" transform="translate(0 0)">
    <path id="Path_8" data-name="Path 8" d="M24.187,11.034a.626.626,0,0,0-.483-.23H21.336c-.584-1.541-1.345-3.051-2.211-3.621C16.133,5.215,8.194,5.215,5.2,7.184,4.336,7.754,3.578,9.266,2.99,10.8H.623a.623.623,0,0,0-.61.749l.351,1.7a.623.623,0,0,0,.61.5h.7A4.206,4.206,0,0,0,.665,16.5a4.118,4.118,0,0,0,1.3,3.092c.009.008.019.014.027.022v2.377a.935.935,0,0,0,.934.934H5.112a.935.935,0,0,0,.934-.934v-.955H18.28v.955a.935.935,0,0,0,.934.934H21.4a.936.936,0,0,0,.934-.934V19.659a4.273,4.273,0,0,0,.273-5.91h.748a.621.621,0,0,0,.61-.5l.351-1.7A.628.628,0,0,0,24.187,11.034ZM6.227,8.744c2.386-1.57,9.486-1.57,11.87,0A7.7,7.7,0,0,1,19.7,11.782H4.623A7.7,7.7,0,0,1,6.227,8.744ZM3.433,16.732a1.838,1.838,0,1,1,1.838,1.838A1.838,1.838,0,0,1,3.433,16.732Zm15.646,1.838a1.838,1.838,0,1,1,1.838-1.838A1.838,1.838,0,0,1,19.079,18.571Z" transform="translate(0 -5.707)" fill="#003aa8"/>
  </g>
</svg>
