<svg width="52" height="51" viewBox="0 0 52 51" fill="none" xmlns="http://www.w3.org/2000/svg">
<path d="M26 49.5C39.4997 49.5 50.5 38.7857 50.5 25.5C50.5 12.2143 39.4997 1.5 26 1.5C12.5003 1.5 1.5 12.2143 1.5 25.5C1.5 38.7857 12.5003 49.5 26 49.5Z" fill="#BBBBBB" fill-opacity="0.3" stroke="#3D8EFF" stroke-width="3"/>
<path d="M12.7351 31.3321C12.875 30.7551 13.1675 30.2222 13.5844 29.7848C14.0013 29.3475 14.5285 29.0204 15.1154 28.835L19.9831 27.2793L24.1644 14.1046C24.2558 13.7661 24.4214 13.4501 24.6501 13.1777C24.8788 12.9054 25.1654 12.6828 25.4907 12.5249C25.8161 12.3669 26.1728 12.2773 26.5372 12.2618C26.9015 12.2463 27.2651 12.3055 27.6038 12.4352C28.0601 12.6153 28.4503 12.9215 28.7245 13.3149C28.9987 13.7082 29.1445 14.171 29.1435 14.6441L29.1421 24.3521L34.971 22.4883L34.4796 20.1342C34.4524 20.004 34.4591 19.8694 34.4992 19.7423C34.5393 19.6152 34.6116 19.4995 34.7096 19.4057L35.9829 18.1848C36.061 18.1099 36.1537 18.0506 36.2558 18.0101C36.3578 17.9696 36.4672 17.9488 36.5776 17.9488C36.688 17.9489 36.7974 17.9698 36.8993 18.0104C37.0013 18.0511 37.094 18.1105 37.172 18.1855L39.5401 20.456C40.1299 21.0214 40.5593 21.722 40.7872 22.4912C41.0152 23.2604 41.0343 24.0728 40.8427 24.851C40.651 25.6293 40.2551 26.3477 39.6924 26.938C39.1296 27.5282 38.4189 27.9708 37.6276 28.2235L16.0531 35.1214C15.6477 35.2515 15.2124 35.2704 14.7965 35.1757C14.3805 35.0811 14.0005 34.8768 13.6993 34.5859C13.2608 34.1687 12.9417 33.6502 12.7727 33.0805C12.6038 32.5107 12.5913 31.9082 12.7351 31.3321ZM27.4602 14.6462C27.4608 14.4919 27.4133 14.341 27.3238 14.2128C27.2344 14.0846 27.1071 13.9849 26.9582 13.9265C26.8364 13.885 26.7068 13.8691 26.578 13.88C26.4493 13.8908 26.3245 13.9282 26.2122 13.9895C26.0999 14.0507 26.0027 14.1345 25.9272 14.2351C25.8517 14.3357 25.7998 14.4507 25.7748 14.5722L21.9391 26.6541L27.4602 24.8896L27.4602 14.6462ZM15.5189 33.589L37.0956 26.6932C37.6147 26.5271 38.0809 26.2366 38.45 25.8492C38.8191 25.4619 39.0788 24.9905 39.2044 24.4798C39.3301 23.9691 39.3175 23.4361 39.1679 22.9314C39.0183 22.4267 38.7366 21.9671 38.3496 21.5961L36.5764 19.8959L36.2164 20.241L36.762 22.8676C36.8024 23.0603 36.7679 23.2605 36.665 23.4305C36.5622 23.6005 36.3981 23.7286 36.2036 23.7906L15.641 30.3592C15.3264 30.4585 15.0437 30.6339 14.8202 30.8683C14.5967 31.1027 14.4399 31.3884 14.3648 31.6978C14.29 32.0066 14.2981 32.3286 14.3884 32.6336C14.4787 32.9387 14.6482 33.2167 14.8812 33.4418C14.962 33.5195 15.0638 33.5741 15.1752 33.5994C15.2866 33.6247 15.4032 33.6197 15.5118 33.5849L15.5189 33.589Z" fill="#3D8EFF"/>
</svg>
