<svg width="52" height="51" viewBox="0 0 52 51" fill="none" xmlns="http://www.w3.org/2000/svg">
<path d="M26 49.5C39.4997 49.5 50.5 38.7857 50.5 25.5C50.5 12.2143 39.4997 1.5 26 1.5C12.5003 1.5 1.5 12.2143 1.5 25.5C1.5 38.7857 12.5003 49.5 26 49.5Z" fill="#BBBBBB" fill-opacity="0.3" stroke="#3D8EFF" stroke-width="3"/>
<path d="M38.4269 19.8774C37.9131 19.5574 37.3255 19.375 36.7207 19.3478C36.1159 19.3205 35.5143 19.4495 34.9738 19.7221L30.4778 21.9701L18.0623 15.3477C17.7544 15.1665 17.4114 15.0529 17.0562 15.0146C16.701 14.9762 16.3417 15.0139 16.0022 15.1252C15.6627 15.2365 15.3507 15.4188 15.0872 15.66C14.8236 15.9013 14.6145 16.1958 14.4736 16.5242C14.2875 16.9704 14.2385 17.4619 14.3328 17.9361C14.4271 18.4103 14.6604 18.8456 15.0029 19.1868L22.0181 26.1999L16.6335 28.8912L15.2731 26.85C15.1979 26.737 15.0959 26.6444 14.9763 26.5804C14.8567 26.5163 14.7231 26.4828 14.5874 26.4829H12.8232C12.715 26.4829 12.6079 26.5042 12.508 26.5457C12.408 26.5871 12.3172 26.6478 12.2408 26.7244C12.1643 26.8009 12.1037 26.8918 12.0624 26.9918C12.0211 27.0918 11.9999 27.1989 12 27.3071V30.5881C11.9999 31.4052 12.2087 32.2087 12.6065 32.9225C13.0043 33.6362 13.578 34.2363 14.2731 34.6659C14.9682 35.0954 15.7615 35.3402 16.5778 35.3768C17.3941 35.4135 18.2062 35.2409 18.937 34.8753L38.8663 24.9136C39.2411 24.7269 39.5562 24.4389 39.776 24.0824C39.9958 23.7259 40.1115 23.315 40.11 22.8962C40.1122 22.291 39.9587 21.6953 39.6641 21.1666C39.3695 20.6379 38.9428 20.1939 38.4269 19.8774ZM16.1705 18.0222C16.0587 17.9111 15.9825 17.7692 15.9519 17.6146C15.9212 17.46 15.9374 17.2998 15.9983 17.1545C16.0527 17.0401 16.131 16.9388 16.228 16.8575C16.325 16.7762 16.4385 16.7167 16.5605 16.6832C16.6826 16.6496 16.8105 16.6428 16.9354 16.6632C17.0604 16.6836 17.1795 16.7307 17.2846 16.8012L28.6711 22.8734L23.5715 25.4232L16.1705 18.0222ZM38.1291 23.4364L18.1998 33.4011C17.7203 33.6407 17.1874 33.7538 16.6518 33.7296C16.1162 33.7054 15.5957 33.5447 15.1397 33.2628C14.6837 32.9808 14.3074 32.587 14.0464 32.1187C13.7853 31.6504 13.6484 31.1232 13.6484 30.5871V28.1303H14.1471L15.6669 30.406C15.7781 30.5732 15.9467 30.6939 16.1407 30.7455C16.3348 30.7971 16.541 30.7759 16.7206 30.686L35.7109 21.1874C36.0007 21.0412 36.3232 20.9721 36.6474 20.9866C36.9717 21.0012 37.2867 21.099 37.5622 21.2705C37.8372 21.4418 38.0642 21.6801 38.222 21.963C38.3798 22.2459 38.4633 22.5643 38.4645 22.8883C38.4647 23.0004 38.4336 23.1104 38.3747 23.2059C38.3158 23.3013 38.2314 23.3784 38.1311 23.4285L38.1291 23.4364Z" fill="#3D8EFF"/>
</svg>
