<svg id="take-off" xmlns="http://www.w3.org/2000/svg" width="22.097" height="19.961" viewBox="0 0 22.097 19.961">
  <path id="Path_74" data-name="Path 74" d="M20.774,3.819A2.772,2.772,0,0,0,18.059,3.7L14.525,5.464,4.765.258a1.978,1.978,0,0,0-2.819.924,1.914,1.914,0,0,0,.416,2.093L7.875,8.788,3.643,10.9,2.573,9.3a.647.647,0,0,0-.539-.288H.647A.647.647,0,0,0,0,9.659v2.579a3.768,3.768,0,0,0,5.453,3.37L21.119,7.775A1.765,1.765,0,0,0,22.1,6.192a2.772,2.772,0,0,0-1.323-2.373ZM3.279,2.361a.624.624,0,0,1-.136-.682A.692.692,0,0,1,4.156,1.4L13.1,6.174l-4.009,2ZM20.54,6.617,4.874,14.45a2.473,2.473,0,0,1-3.579-2.212V10.306h.393L2.882,12.1a.647.647,0,0,0,.828.22L18.638,4.855a1.486,1.486,0,0,1,1.455.065A1.505,1.505,0,0,1,20.8,6.192a.474.474,0,0,1-.262.425Z" transform="translate(0 0)" fill="#fff"/>
  <path id="Path_75" data-name="Path 75" d="M21.449,482H.647a.647.647,0,1,0,0,1.295h20.8a.647.647,0,1,0,0-1.295Z" transform="translate(0 -463.333)" fill="#fff"/>
</svg>
