<svg xmlns="http://www.w3.org/2000/svg" width="15.967" height="17.503" viewBox="0 0 15.967 17.503">
  <g id="edit" transform="translate(-127.2 -68.987)">
    <path id="Path_89" data-name="Path 89" d="M127.2,410.4c0-.477.009-.96,0-1.437,0-.131.037-.159.164-.159q7.815.007,15.63,0c.126,0,.164.028.164.159,0,.477,0,.96,0,1.437Z" transform="translate(0 -323.906)" fill="#fe712a"/>
    <path id="Path_90" data-name="Path 90" d="M175.644,73.36q-2.156-2.149-4.311-4.311c-.08-.08-.117-.084-.2,0L161.489,78.7a.27.27,0,0,0-.089.206c0,1.423,0,2.841,0,4.264,0,.117.037.136.145.136.707,0,1.414,0,2.12,0h2.106a.289.289,0,0,0,.225-.084l9.647-9.647C175.728,73.486,175.728,73.444,175.644,73.36Zm-2.256.215q-4.023,4.016-8.037,8.037a.308.308,0,0,1-.239.1c-.323,0-.651,0-.974,0s-.674,0-1.011,0c-.1,0-.136-.023-.136-.131,0-.674,0-1.348,0-2.017a.286.286,0,0,1,.117-.215l3.8-3.8c1.4-1.4,2.8-2.8,4.2-4.2.117-.117.169-.1.271,0q1,1.011,2.008,2.008C173.472,73.439,173.486,73.482,173.388,73.575Z" transform="translate(-32.599)" fill="#fe712a"/>
  </g>
</svg>
