<svg xmlns="http://www.w3.org/2000/svg" width="46" height="30.867" viewBox="0 0 46 30.867">
  <g id="flight" transform="translate(-48.463 -98.538)">
    <path id="Path_31" data-name="Path 31" d="M243.594,316.91a.957.957,0,0,0-1.346.2c-.15.168-.29.346-.43.524l-1.515,1.907c-1.374,1.72-2.786,3.506-4.179,5.264a3.918,3.918,0,0,1-2.524,1.6l.514-1.477c.514-1.5,1.01-2.908,1.505-4.329a1.431,1.431,0,0,0,.065-1.1.946.946,0,0,0-.589-.458c-.926-.3-1.206.5-1.356.944-.309.9-.626,1.8-.926,2.683v.009c-.374,1.075-.757,2.178-1.131,3.272a1.95,1.95,0,0,0,.28,1.954,1.8,1.8,0,0,0,1.384.58,2.563,2.563,0,0,0,.524-.056,6.246,6.246,0,0,0,3.777-2.365c1.29-1.636,2.608-3.291,3.88-4.9l.009-.009c.561-.7,1.122-1.412,1.683-2.113.037-.047.075-.094.122-.15l.019-.019c.131-.159.271-.337.393-.514A.959.959,0,0,0,243.594,316.91Z" transform="translate(-166.895 -199.07)" fill="#4c94f2"/>
    <path id="Path_32" data-name="Path 32" d="M94.351,107.646a3.372,3.372,0,0,0-2.468-2.176,9.288,9.288,0,0,0-4.254-.088c-2.27.407-4.523,1.026-6.7,1.628-.494.133-.987.274-1.472.407a1.8,1.8,0,0,1-1.741-.327c-1.956-1.468-3.949-2.919-5.869-4.326l-.036-.027c-1.346-.991-2.746-2.008-4.11-3.017a5.209,5.209,0,0,0-4.738-.973,2.482,2.482,0,0,0-1.786,1.221,2.359,2.359,0,0,0,.413,2.061l.682,1.159c1.4,2.371,2.845,4.83,4.29,7.236a.825.825,0,0,1,.126.283.674.674,0,0,1-.269.106c-2.477.663-5,1.353-7.44,2.035l-1.014.283a2.744,2.744,0,0,1-2.36-.389c-.7-.46-1.418-.911-2.127-1.345-.359-.221-.727-.442-1.086-.672a2.993,2.993,0,0,0-1.373-.531,2.264,2.264,0,0,0-2.3.991A1.854,1.854,0,0,0,49,113.378c.538.725,1.086,1.477,1.57,2.141l.036.044c.637.876,1.3,1.778,1.956,2.663a7.093,7.093,0,0,0,5.752,2.99c.081,0,.162.009.242.009a7.9,7.9,0,0,0,2.073-.318l2.683-.708.054-.018,2.324-.61c1.669-.442,3.347-.893,5.017-1.336l.467-.124c5.7-1.513,11.595-3.078,17.383-4.644a9.369,9.369,0,0,0,4.882-2.707A3.227,3.227,0,0,0,94.351,107.646Zm-25.1,4.1c.135-.318.045-.7-.287-1.265-1.158-1.982-2.333-3.963-3.464-5.891-.628-1.07-1.265-2.141-1.894-3.211a1.948,1.948,0,0,1-.305-.619,2.547,2.547,0,0,1,.718-.15,3.3,3.3,0,0,1,2.486.761c1.481,1.1,2.988,2.194,4.451,3.264l.045.035c2,1.468,4.074,2.981,6.1,4.494a2.292,2.292,0,0,0,2.145.407c.915-.23,1.84-.478,2.728-.725a65.1,65.1,0,0,1,6.452-1.522,6.51,6.51,0,0,1,2.926.115,1.082,1.082,0,0,1,.574,1.964,6.763,6.763,0,0,1-3.1,1.831c-2.414.8-4.918,1.442-7.35,2.07l-.045.009c-.763.195-1.553.4-2.333.61-5.519,1.468-11.137,2.937-16.566,4.361l-2.477.646a5.165,5.165,0,0,1-5.9-2.052c-1.05-1.424-2.109-2.875-3.132-4.273l-.269-.363a1.161,1.161,0,0,1,.574.239l.063.035c.395.248.79.487,1.176.725l.027.018c.664.407,1.346.823,2.01,1.256a4.538,4.538,0,0,0,3.85.593c1.705-.469,3.464-.955,5.026-1.38,1.544-.425,3.132-.858,4.729-1.3C68.811,112.255,69.125,112.052,69.25,111.742Z" transform="translate(0 0)" fill="#4c94f2"/>
    <path id="Path_33" data-name="Path 33" d="M278.242,262.3c.009.561-.262.907-.776.888-.739-.019-.86-.636-.916-1.206a.67.67,0,0,1,.72-.795C278.046,261.163,278.1,261.8,278.242,262.3Z" transform="translate(-207.645 -148.096)" fill="#4c94f2"/>
    <path id="Path_34" data-name="Path 34" d="M196.8,283.212c.028-.486.3-.823.757-.813.748,0,.9.626.944,1.187a.718.718,0,0,1-.795.841C196.94,284.39,196.931,283.735,196.8,283.212Z" transform="translate(-135.046 -167.407)" fill="#4c94f2"/>
    <path id="Path_35" data-name="Path 35" d="M357.866,240.6c-.037.533-.3.879-.823.823-.729-.075-.823-.72-.86-1.271a.7.7,0,0,1,.776-.767C357.7,239.431,357.763,240.048,357.866,240.6Z" transform="translate(-280.146 -128.241)" fill="#4c94f2"/>
    <path id="Path_36" data-name="Path 36" d="M238.376,272.88c-.037.552-.309.9-.832.832-.72-.084-.832-.72-.86-1.271a.694.694,0,0,1,.785-.757C238.217,271.73,238.273,272.348,238.376,272.88Z" transform="translate(-171.354 -157.65)" fill="#4c94f2"/>
    <path id="Path_37" data-name="Path 37" d="M436.486,217.8c.748.094.879.682.935,1.234a.7.7,0,0,1-.823.8c-.7-.047-.8-.617-.86-1.159S436,217.884,436.486,217.8Z" transform="translate(-352.568 -108.59)" fill="#4c94f2"/>
    <path id="Path_38" data-name="Path 38" d="M397.534,230.029c.028.645-.252.982-.757.972-.739-.019-.87-.636-.926-1.206a.688.688,0,0,1,.72-.8C397.375,228.963,397.384,229.618,397.534,230.029Z" transform="translate(-316.256 -118.778)" fill="#4c94f2"/>
    <path id="Path_39" data-name="Path 39" d="M316.481,251.114c-.028-.57.243-.926.748-.916.748.009.86.654.926,1.206a.687.687,0,0,1-.711.813C316.668,252.246,316.584,251.638,316.481,251.114Z" transform="translate(-244 -138.088)" fill="#4c94f2"/>
  </g>
</svg>
