<svg xmlns="http://www.w3.org/2000/svg" width="39.908" height="26.779" viewBox="0 0 39.908 26.779">
  <g id="flight" transform="translate(-48.463 -98.538)">
    <path id="Path_1080" data-name="Path 1080" d="M.238,10.979l6.115,1.676,8.72-2.369L11.416,1.174S10.73-.86,14.063.684,25.1,7.78,25.1,7.78l11.321-2L37.79,9.9,5.827,18.823Z" transform="translate(49.463 98.867)" fill="#b8d7ff"/>
    <path id="Path_31" data-name="Path 31" d="M242,316.884a.83.83,0,0,0-1.168.17c-.13.146-.251.3-.373.454l-1.314,1.655c-1.192,1.492-2.417,3.042-3.626,4.567a3.4,3.4,0,0,1-2.19,1.387l.446-1.282c.446-1.3.876-2.523,1.306-3.755a1.241,1.241,0,0,0,.057-.957.821.821,0,0,0-.511-.4c-.8-.26-1.046.438-1.176.819-.268.779-.543,1.565-.8,2.328v.008c-.324.933-.657,1.89-.981,2.839a1.692,1.692,0,0,0,.243,1.7,1.564,1.564,0,0,0,1.2.5,2.223,2.223,0,0,0,.454-.049,5.419,5.419,0,0,0,3.277-2.052c1.119-1.419,2.263-2.855,3.366-4.25l.008-.008c.487-.608.973-1.225,1.46-1.833.032-.041.065-.081.105-.13l.016-.016c.114-.138.235-.292.341-.446A.832.832,0,0,0,242,316.884Z" transform="translate(-169.04 -201.6)" fill="#4c94f2"/>
    <path id="Path_32" data-name="Path 32" d="M88.273,106.44a2.925,2.925,0,0,0-2.141-1.888,8.058,8.058,0,0,0-3.69-.077c-1.97.353-3.924.89-5.816,1.412-.428.115-.856.238-1.277.353a1.558,1.558,0,0,1-1.51-.284c-1.7-1.274-3.426-2.533-5.092-3.753l-.031-.023c-1.168-.86-2.382-1.742-3.566-2.617a4.519,4.519,0,0,0-4.111-.844,2.154,2.154,0,0,0-1.549,1.059,2.047,2.047,0,0,0,.358,1.788l.592,1.005c1.215,2.057,2.468,4.19,3.721,6.278a.716.716,0,0,1,.109.246.584.584,0,0,1-.234.092c-2.149.576-4.337,1.174-6.454,1.765l-.88.246a2.38,2.38,0,0,1-2.048-.338c-.607-.4-1.23-.79-1.845-1.167-.311-.192-.631-.384-.942-.583a2.6,2.6,0,0,0-1.191-.46,1.964,1.964,0,0,0-1.993.86,1.608,1.608,0,0,0,.249,1.9c.467.629.942,1.282,1.362,1.857l.031.038c.553.76,1.129,1.543,1.7,2.31a6.154,6.154,0,0,0,4.991,2.594c.07,0,.14.008.21.008a6.849,6.849,0,0,0,1.8-.276l2.328-.614.047-.015,2.016-.53c1.448-.384,2.9-.775,4.352-1.159l.4-.107c4.944-1.312,10.059-2.671,15.081-4.029a8.128,8.128,0,0,0,4.235-2.348A2.8,2.8,0,0,0,88.273,106.44ZM66.5,109.993c.117-.276.039-.606-.249-1.1-1-1.719-2.024-3.438-3.005-5.111-.545-.929-1.1-1.857-1.643-2.786a1.69,1.69,0,0,1-.265-.537,2.21,2.21,0,0,1,.623-.13,2.865,2.865,0,0,1,2.157.66c1.285.952,2.593,1.9,3.862,2.832l.039.031c1.736,1.274,3.535,2.586,5.294,3.9a1.989,1.989,0,0,0,1.861.353c.794-.2,1.6-.414,2.367-.629a56.475,56.475,0,0,1,5.6-1.32,5.648,5.648,0,0,1,2.538.1.939.939,0,0,1,.5,1.7,5.868,5.868,0,0,1-2.686,1.589c-2.094.691-4.266,1.251-6.376,1.8l-.039.008c-.662.169-1.347.345-2.024.53-4.788,1.274-9.662,2.548-14.372,3.784l-2.149.56a4.481,4.481,0,0,1-5.123-1.78c-.911-1.236-1.83-2.494-2.717-3.707l-.234-.315a1.008,1.008,0,0,1,.5.207l.054.031c.343.215.685.422,1.02.629l.023.015c.576.353,1.168.714,1.744,1.09a3.937,3.937,0,0,0,3.34.514c1.479-.407,3.005-.829,4.36-1.2,1.339-.368,2.717-.744,4.1-1.128C66.116,110.438,66.388,110.262,66.5,109.993Z" transform="translate(0 0)" fill="#4c94f2"/>
    <path id="Path_33" data-name="Path 33" d="M278.017,262.156c.008.487-.227.787-.673.771-.641-.016-.746-.552-.795-1.046a.581.581,0,0,1,.625-.689C277.847,261.167,277.9,261.718,278.017,262.156Z" transform="translate(-210.351 -150.024)" fill="#4c94f2"/>
    <path id="Path_34" data-name="Path 34" d="M196.8,283.1c.024-.422.26-.714.657-.706.649,0,.779.543.819,1.03a.622.622,0,0,1-.689.73C196.922,284.126,196.914,283.558,196.8,283.1Z" transform="translate(-136.806 -169.586)" fill="#4c94f2"/>
    <path id="Path_35" data-name="Path 35" d="M357.643,240.439c-.032.462-.26.762-.714.714-.633-.065-.714-.625-.746-1.1a.6.6,0,0,1,.673-.665C357.5,239.425,357.554,239.96,357.643,240.439Z" transform="translate(-283.798 -129.91)" fill="#4c94f2"/>
    <path id="Path_36" data-name="Path 36" d="M238.152,272.722c-.032.479-.268.779-.722.722-.625-.073-.722-.625-.746-1.1a.6.6,0,0,1,.681-.657C238.014,271.724,238.062,272.259,238.152,272.722Z" transform="translate(-173.588 -159.702)" fill="#4c94f2"/>
    <path id="Path_37" data-name="Path 37" d="M436.386,217.8c.649.081.763.592.811,1.071a.609.609,0,0,1-.714.7c-.608-.041-.7-.535-.746-1.006S435.964,217.873,436.386,217.8Z" transform="translate(-357.164 -110.003)" fill="#4c94f2"/>
    <path id="Path_38" data-name="Path 38" d="M397.31,229.892c.024.56-.219.852-.657.844-.641-.016-.754-.552-.8-1.046a.6.6,0,0,1,.625-.7C397.172,228.967,397.181,229.535,397.31,229.892Z" transform="translate(-320.379 -120.324)" fill="#4c94f2"/>
    <path id="Path_39" data-name="Path 39" d="M316.48,250.993c-.024-.495.211-.8.649-.795.649.008.746.568.8,1.046a.6.6,0,0,1-.616.706C316.643,251.975,316.57,251.447,316.48,250.993Z" transform="translate(-247.181 -139.885)" fill="#4c94f2"/>
  </g>
</svg>
