<svg xmlns="http://www.w3.org/2000/svg" width="24" height="21.943" viewBox="0 0 24 21.943">
  <g id="logout" transform="translate(-93.3 -51.919)">
    <path id="Path_97" data-name="Path 97" d="M93.3,54.291a5.983,5.983,0,0,1,.337-.8,3.5,3.5,0,0,1,3.073-1.555c3.52-.027,7.039-.011,10.559-.005.681,0,1.175.387,1.182.893s-.467.909-1.148.92c-.811.016-1.629.005-2.44.005h-7.9a1.463,1.463,0,0,0-1.072.344.879.879,0,0,0-.261.7V70.94a.915.915,0,0,0,.22.694,1.452,1.452,0,0,0,1.127.387h8.833c.474,0,.949-.005,1.423,0,.694.011,1.175.35,1.217.845.041.527-.392.9-1.107.979a1.09,1.09,0,0,1-.3.011H96.8a3.525,3.525,0,0,1-3.293-1.679,2.213,2.213,0,0,1-.206-.7Z" fill="#4c94f2"/>
    <path id="Path_98" data-name="Path 98" d="M243.86,143.266H243.5q-6.527,0-13.054,0c-.811,0-1.21-.345-1.3-.667-.124-.449.371-.9,1.038-.932.131,0,.254,0,.385,0h13.247c-.027-.095-.124-.123-.186-.17q-2.361-1.6-4.723-3.212c-.522-.355-.591-.781-.186-1.131a1.524,1.524,0,0,1,1.615-.137,2.4,2.4,0,0,1,.282.175q3.392,2.306,6.792,4.617c.639.435.646.88.014,1.31-2.282,1.552-4.571,3.1-6.847,4.655a1.566,1.566,0,0,1-1.2.289c-.839-.137-1.182-.818-.632-1.282.082-.066.172-.132.261-.194q2.33-1.583,4.668-3.17A2.235,2.235,0,0,1,243.86,143.266Z" transform="translate(-130.591 -79.588)" fill="#4c94f2"/>
  </g>
</svg>
