<svg xmlns="http://www.w3.org/2000/svg" width="23.218" height="26.626" viewBox="0 0 23.218 26.626">
  <path id="share" d="M117.027,49.6c-.094.088-.152.2-.328.088q-3.391-2.117-6.8-4.217a.2.2,0,0,1-.1-.281,4.148,4.148,0,0,0,.006-2.753.226.226,0,0,1,.117-.322q3.374-2.073,6.742-4.17c.152-.094.223-.088.357.041a4.169,4.169,0,0,0,3.626,1.212,4.315,4.315,0,0,0,.715-8.393c-.275-.082-.556-.141-.832-.2h-.978c-.094.094-.223.059-.334.082a4.324,4.324,0,0,0-3.257,5.611c.047.146.047.217-.1.3q-3.391,2.091-6.783,4.2a.2.2,0,0,1-.3-.035,4.315,4.315,0,0,0-7.3,3.854,4.323,4.323,0,0,0,7.3,2.237.213.213,0,0,1,.322-.035q3.374,2.1,6.759,4.188c.135.082.17.146.111.3a4.163,4.163,0,0,0-.17,2.109,4.323,4.323,0,1,0,1.23-3.819Zm3.034-17.425a2.741,2.741,0,1,1-2.747,2.718A2.741,2.741,0,0,1,120.061,32.176ZM105.7,46.543a2.741,2.741,0,1,1,2.753-2.718A2.738,2.738,0,0,1,105.7,46.543Zm14.344,8.885a2.744,2.744,0,1,1,2.747-2.724A2.742,2.742,0,0,1,120.049,55.429Z" transform="translate(-101.278 -30.5)" fill="#4c94f2" stroke="#4c94f2" stroke-width="0.2"/>
</svg>
