<svg xmlns="http://www.w3.org/2000/svg" width="28.41" height="28.41" viewBox="0 0 28.41 28.41">
  <g id="take-off" transform="translate(0 0)">
    <path id="Path_74" data-name="Path 74" d="M26.709,4.91a3.565,3.565,0,0,0-3.49-.157L18.675,7.025,6.127.332A2.543,2.543,0,0,0,2.5,1.521a2.461,2.461,0,0,0,.535,2.691L10.125,11.3,4.683,14.02,3.308,11.957a.832.832,0,0,0-.693-.371H.832A.832.832,0,0,0,0,12.419v3.316a4.844,4.844,0,0,0,7.011,4.333L27.153,10A2.269,2.269,0,0,0,28.41,7.961a3.564,3.564,0,0,0-1.7-3.051ZM4.215,3.035a.8.8,0,0,1-.174-.877.89.89,0,0,1,1.3-.357L16.849,7.938l-5.154,2.577ZM26.408,8.507,6.266,18.578a3.179,3.179,0,0,1-4.6-2.844V13.251H2.17l1.536,2.3a.832.832,0,0,0,1.065.283l19.193-9.6a1.911,1.911,0,0,1,1.871.084,1.935,1.935,0,0,1,.912,1.635.609.609,0,0,1-.337.546Z" transform="translate(0 0)" fill="#0050a6"/>
    <path id="Path_75" data-name="Path 75" d="M27.578,482H.832a.832.832,0,1,0,0,1.665H27.578a.832.832,0,1,0,0-1.665Z" transform="translate(0 -455.255)" fill="#0050a6"/>
  </g>
</svg>
